<svg xmlns="http://www.w3.org/2000/svg" viewBox="0 0 20 20" class="design-iconfont">
  <g fill="none" fill-rule="evenodd">
    <path fill="#F56618" d="M10 0A10 10 0 1 0 10 20A10 10 0 1 0 10 0Z"/>
    <path d="M10,4 C11.2936327,4 12.3423292,5.04869651 12.3423292,6.34232922 C12.3423292,6.53384229 12.3188419,6.72463253 12.2723931,6.9104275 L11,12 L11,12 L9,12 L7.72760688,6.9104275 C7.41385486,5.65541943 8.17689365,4.38368811 9.43190172,4.06993609 C9.61769669,4.02348735 9.80848693,4 10,4 Z" fill="#FFF"/>
    <path fill="#FFF" d="M10 13A2 2 0 1 0 10 17A2 2 0 1 0 10 13Z"/>
  </g>
</svg>
