<svg t="1687683942604" class="icon" viewBox="0 0 1024 1024" version="1.1" xmlns="http://www.w3.org/2000/svg" p-id="4247" id="mx_n_1687683942605" width="32" height="32"><path d="M397.75 488H103.27c-21.48 0-39.06-17.58-39.06-39.06V154.46c0-21.48 17.58-39.06 39.06-39.06h294.48c21.48 0 39.06 17.58 39.06 39.06v294.48c0 21.49-17.57 39.06-39.06 39.06z m-35.46-97.95V213.36c0-12.89-10.55-23.44-23.44-23.44H162.17c-12.89 0-23.44 10.55-23.44 23.44v176.69c0 12.89 10.55 23.44 23.44 23.44h176.69c12.89-0.01 23.43-10.55 23.43-23.44zM921.2 283.07H511.33c-20.58 0-37.26-16.68-37.26-37.26s16.68-37.26 37.26-37.26H921.2c20.58 0 37.26 16.68 37.26 37.26s-16.69 37.26-37.26 37.26zM737.03 394.85H509.2c-19.4 0-35.13-15.73-35.13-35.13v-4.26c0-19.4 15.73-35.13 35.13-35.13h227.82c19.4 0 35.13 15.73 35.13 35.13v4.26c0 19.41-15.72 35.13-35.12 35.13z" p-id="4248" fill="#707070"></path><path d="M397.75 916.5H103.27c-21.48 0-39.06-17.58-39.06-39.06V582.95c0-21.48 17.58-39.06 39.06-39.06h294.48c21.48 0 39.06 17.58 39.06 39.06v294.48c0 21.49-17.57 39.07-39.06 39.07z m-35.46-97.96V641.85c0-12.89-10.55-23.44-23.44-23.44H162.17c-12.89 0-23.44 10.55-23.44 23.44v176.69c0 12.89 10.55 23.44 23.44 23.44h176.69c12.89 0 23.43-10.55 23.43-23.44z" p-id="4249" fill="#707070"></path><path d="M215.43 757.87l90.48-90.48c9.7-9.7 25.43-9.7 35.13 0 9.7 9.7 9.7 25.43 0 35.13L250.57 793c-9.7 9.7-25.43 9.7-35.13 0-9.71-9.7-9.71-25.43-0.01-35.13z" p-id="4250" fill="#707070"></path><path d="M212.68 793l-52.7-52.7c-9.7-9.7-9.7-25.43 0-35.13 9.7-9.7 25.43-9.7 35.13 0l52.7 52.7c9.7 9.7 9.7 25.43 0 35.13-9.7 9.7-25.43 9.7-35.13 0z" p-id="4251" fill="#707070"></path><path d="M921.2 711.57H511.33c-20.58 0-37.26-16.68-37.26-37.26s16.68-37.26 37.26-37.26H921.2c20.58 0 37.26 16.68 37.26 37.26 0 20.57-16.69 37.26-37.26 37.26zM737.03 823.35H509.2c-19.4 0-35.13-15.73-35.13-35.13v-4.26c0-19.4 15.73-35.13 35.13-35.13h227.82c19.4 0 35.13 15.73 35.13 35.13v4.26c0 19.4-15.72 35.13-35.12 35.13z" p-id="4252" fill="#707070"></path></svg>