<svg t="1687684266518" class="icon" viewBox="0 0 1024 1024" version="1.1" xmlns="http://www.w3.org/2000/svg" p-id="6512" id="mx_n_1687684266519" width="32" height="32"><path d="M938.666667 235.093333V938.666667H85.333333V235.093333h853.333334m85.333333-85.333333H0V1024h1024V149.76z" p-id="6513" fill="#707070"></path><path d="M796.373333 565.333333H227.84c-23.466667 0-42.666667-19.2-42.666667-42.666666s19.2-42.666667 42.666667-42.666667h568.533333c23.466667 0 42.666667 19.2 42.666667 42.666667s-19.2 42.666667-42.666667 42.666666zM532.693333 756.266667H227.84c-23.466667 0-42.666667-19.2-42.666667-42.666667s19.2-42.666667 42.666667-42.666667h304.853333a42.666667 42.666667 0 1 1 0 85.333334z" p-id="6514" fill="#707070"></path><path d="M298.453333 0h85.333334v299.52h-85.333334zM640.213333 0h85.333334v299.52h-85.333334z" p-id="6515" fill="#707070"></path></svg>