<svg t="1690423554627" class="icon" viewBox="0 0 1024 1024" version="1.1" xmlns="http://www.w3.org/2000/svg" p-id="2282" width="20" height="20"><path d="M939.7248 519.4752l-153.6-153.6c-9.984-9.984-26.2144-9.984-36.1984 0s-9.984 26.2144 0 36.1984l109.8752 109.8752-347.8016 0 0-347.8016 109.8752 109.8752c5.0176 5.0176 11.5712 7.4752 18.1248 7.4752s13.1072-2.5088 18.1248-7.4752c9.984-9.984 9.984-26.2144 0-36.1984l-153.6-153.6c-9.984-9.984-26.2144-9.984-36.1984 0l-153.6 153.6c-9.984 9.984-9.984 26.2144 0 36.1984s26.2144 9.984 36.1984 0l109.8752-109.8752 0 347.8016-347.8016 0 109.8752-109.8752c9.984-9.984 9.984-26.2144 0-36.1984s-26.2144-9.984-36.1984 0l-153.6 153.6c-9.984 9.984-9.984 26.2144 0 36.1984l153.6 153.6c5.0176 5.0176 11.5712 7.4752 18.1248 7.4752s13.1072-2.5088 18.1248-7.4752c9.984-9.984 9.984-26.2144 0-36.1984l-109.8752-109.8752 347.8016 0 0 347.8016-109.8752-109.8752c-9.984-9.984-26.2144-9.984-36.1984 0s-9.984 26.2144 0 36.1984l153.6 153.6c5.0176 5.0176 11.5712 7.4752 18.1248 7.4752s13.1072-2.5088 18.1248-7.4752l153.6-153.6c9.984-9.984 9.984-26.2144 0-36.1984s-26.2144-9.984-36.1984 0l-109.8752 109.8752 0-347.8016 347.8016 0-109.8752 109.8752c-9.984 9.984-9.984 26.2144 0 36.1984 5.0176 5.0176 11.5712 7.4752 18.1248 7.4752s13.1072-2.5088 18.1248-7.4752l153.6-153.6c9.984-9.984 9.984-26.2144 0-36.1984z" fill="#1296db" p-id="2283"></path></svg>