<svg t="1690421588404" class="icon" viewBox="0 0 1024 1024" version="1.1" xmlns="http://www.w3.org/2000/svg" p-id="5806" width="32" height="32"><path d="M482.676 1022.176c-45.064 0-88.512-25.32-109.144-68.32a48.72 48.72 0 0 1-0.216-0.464L268.14 726.824l-30.104 60.128c-0.96 1.904-2.064 3.728-3.312 5.456-22.4 31.096-59.272 42.152-86.56 42.16l-0.664-0.008c-30.512-0.2-60.88-13.288-83.336-35.92A123.92 123.92 0 0 1 28.004 710.8V395.416a39.92 39.92 0 1 1 79.84 0V710.8c0 25.728 21.168 43.792 40.176 43.92h0.184c7.664 0 16.08-3.136 20.392-7.408l65.224-130.24a39.92 39.92 0 0 1 35.68-22.048l0.6 0.008a39.92 39.92 0 0 1 35.616 23.104L445.604 919.504c9.648 19.84 33.696 28.424 53.728 19.16a40.424 40.424 0 0 0 21.264-23.28 40.44 40.44 0 0 0-1.712-31.472l-0.12-0.264-139.6-293.424a39.92 39.92 0 0 1 36.048-57.072h145.68c23.16-1.184 32.408-19.424 34.704-25.032 2.312-5.64 8.512-25.12-6.88-42.416L173.06 89.08c-17.92-14.76-36.736-7.824-42.12-5.328-5.416 2.512-23.104 12.56-23.104 36.208v75.848a39.92 39.92 0 1 1-79.832 0v-75.848C28.004 72.816 54.564 31.192 97.316 11.336c42.752-19.856 91.688-13.296 127.704 17.12 0.36 0.296 0.704 0.608 1.04 0.92l417.6 378.376c0.776 0.704 1.52 1.44 2.24 2.2 32.752 34.744 41.784 83.96 23.568 128.432-18.112 44.24-58.824 72.816-106.232 74.584a40.992 40.992 0 0 1-1.488 0.032H478.396l112.4 236.24a119.696 119.696 0 0 1 4.968 93.008 119.68 119.68 0 0 1-62.92 68.88 119.24 119.24 0 0 1-50.16 11.04z m511.336-832.264a39.92 39.92 0 0 0-39.92-39.92H654.708a39.92 39.92 0 0 0 0 79.84h299.384a39.92 39.92 0 0 0 39.92-39.92z" fill="#E1C9FF" p-id="5807"></path></svg>