<?xml version="1.0" encoding="UTF-8"?>
<svg width="350px" height="220px" viewBox="0 0 350 220" version="1.1" xmlns="http://www.w3.org/2000/svg" xmlns:xlink="http://www.w3.org/1999/xlink">
    <!-- Generator: Sketch 60.1 (88133) - https://sketch.com -->
    <title>i/无数据/无内容-最大</title>
    <desc>Created with Sketch.</desc>
    <defs>
        <linearGradient x1="16.8137645%" y1="46.6042241%" x2="50%" y2="53.3957759%" id="linearGradient-1">
            <stop stop-color="#FCFFFF" stop-opacity="0" offset="0%"></stop>
            <stop stop-color="#C5ECDF" stop-opacity="0.5" offset="100%"></stop>
        </linearGradient>
        <path d="M165,86 C256.126984,86 330,73.9173554 330,42.6446281 C330,11.3719008 256.126984,0 165,0 C73.8730163,0 0,10.2279706 0,42.6446281 C0,75.0612856 73.8730163,86 165,86 Z" id="path-2"></path>
        <linearGradient x1="21.835903%" y1="52.1563813%" x2="72.9705988%" y2="47.7858833%" id="linearGradient-4">
            <stop stop-color="#C6EEDC" stop-opacity="0" offset="0%"></stop>
            <stop stop-color="#94D9B7" offset="100%"></stop>
        </linearGradient>
        <linearGradient x1="91.7952937%" y1="85.0349172%" x2="-4.36643325%" y2="12.74384%" id="linearGradient-5">
            <stop stop-color="#35D5BF" offset="0%"></stop>
            <stop stop-color="#FFFFFF" stop-opacity="0.0487432065" offset="100%"></stop>
        </linearGradient>
        <path d="M115.501974,105.456603 C105.772399,105.109828 100.907612,103.460269 100.907612,100.507929 C100.907612,96.079418 99.2712719,90.64042 94.0041132,89.4013864 C88.7369545,88.1623528 82.1685774,85.6564803 83.3506415,81.6748896 C84.5327057,77.6932989 85.0025525,66.5114786 80.9526626,63.8279231 C76.9027727,61.1443676 71.4446964,57.454394 71.4446964,57.454394 C71.4446964,57.454394 57.4366268,50.1727828 57.4366268,46.2318829 C57.4366268,42.2909829 51.738211,36.1961855 48.9956326,33.4414212 C46.2530542,30.6866569 46.3173704,25.6165884 46.3173704,25.6165884 C46.3173704,25.6165884 42.2119655,23.0801978 38.9203298,23.0801978 C35.6286941,23.0801978 31.3269555,20.1518196 29.5491202,18.3994043 C28.3638966,17.2311274 26.7171761,16.9019844 24.6089586,17.4119752 C21.8332113,16.5905835 20.6869678,15.6007266 21.1702279,14.4424043 C21.8951181,12.7049208 19.1897948,14.4424043 18.2315323,14.4424043 C17.2732698,14.4424043 16.1577503,12.505673 16.1577503,11.8137007 C16.1577503,11.1217284 14.9959153,10.7174785 13.4351933,10.9196035 C11.8744713,11.1217284 -9.04358414,6.88645513 4.59397408,2.29548504 C13.6856796,-0.765161681 20.9897533,-0.765161681 26.5061954,2.29548504 C23.9765463,4.8902613 23.344134,6.01753357 24.6089586,5.67730187 C26.5061954,5.16695431 36.094924,0.842127416 41.55045,7.3683901 C45.1874673,11.7192319 51.2815955,14.0772366 59.8328347,14.4424043 L55.0885557,18.3994043 C70.3461926,16.3876815 79.7668879,20.5234973 83.3506415,30.8068515 C88.726272,46.2318829 95.0466125,40.7821928 98.8566171,49.1182934 C102.666622,57.454394 107.641215,59.8610903 107.641215,66.4047751 C107.641215,72.9484599 119.496667,73.9285267 121.708439,85.457274 C123.182953,93.1431055 121.114132,99.8095486 115.501974,105.456603 Z" id="path-6"></path>
        <linearGradient x1="58.4737134%" y1="-21.1280617%" x2="50%" y2="65.6725084%" id="linearGradient-8">
            <stop stop-color="#FFFFFF" stop-opacity="0" offset="0%"></stop>
            <stop stop-color="#97FFE3" offset="100%"></stop>
        </linearGradient>
        <linearGradient x1="50%" y1="0%" x2="50%" y2="100%" id="linearGradient-9">
            <stop stop-color="#92C4FF" offset="0%"></stop>
            <stop stop-color="#2BDDDB" offset="100%"></stop>
        </linearGradient>
        <linearGradient x1="100%" y1="50%" x2="2.79308165%" y2="50%" id="linearGradient-10">
            <stop stop-color="#EBF8F2" stop-opacity="0" offset="0%"></stop>
            <stop stop-color="#A0D8BF" offset="100%"></stop>
        </linearGradient>
        <filter x="-14.8%" y="-56.5%" width="129.6%" height="213.0%" filterUnits="objectBoundingBox" id="filter-11">
            <feGaussianBlur stdDeviation="6.80106027" in="SourceGraphic"></feGaussianBlur>
        </filter>
        <linearGradient x1="19.7804307%" y1="72.3572566%" x2="83.9758454%" y2="50%" id="linearGradient-12">
            <stop stop-color="#59BF8E" offset="0%"></stop>
            <stop stop-color="#72C99F" offset="100%"></stop>
        </linearGradient>
        <linearGradient x1="14.4753557%" y1="72.3572566%" x2="89.9403382%" y2="50%" id="linearGradient-13">
            <stop stop-color="#98E5CC" offset="0%"></stop>
            <stop stop-color="#88D4AF" offset="100%"></stop>
        </linearGradient>
        <linearGradient x1="50%" y1="100%" x2="50%" y2="3.061617e-15%" id="linearGradient-14">
            <stop stop-color="#CFF4E3" stop-opacity="0" offset="0%"></stop>
            <stop stop-color="#A1E6C3" offset="100%"></stop>
        </linearGradient>
        <linearGradient x1="50%" y1="100%" x2="50%" y2="3.061617e-15%" id="linearGradient-15">
            <stop stop-color="#CFF4E3" stop-opacity="0" offset="0%"></stop>
            <stop stop-color="#A1E6C3" offset="100%"></stop>
        </linearGradient>
        <linearGradient x1="83.0482552%" y1="76.1338708%" x2="13.065518%" y2="50%" id="linearGradient-16">
            <stop stop-color="#B8EBD6" offset="0%"></stop>
            <stop stop-color="#8FDEC5" offset="100%"></stop>
        </linearGradient>
        <polygon id="path-17" points="0 0 80.5 14.3729948 80.5 99.0162819 0 75.6601653"></polygon>
        <linearGradient x1="15.0430339%" y1="72.3572566%" x2="89.3020979%" y2="50%" id="linearGradient-19">
            <stop stop-color="#D0F2E2" offset="0%"></stop>
            <stop stop-color="#A5E0C3" offset="100%"></stop>
        </linearGradient>
        <polygon id="path-20" points="0.5 12.8563424 82 0 82 77.4282327 0.5 97.4710724"></polygon>
        <polygon id="path-22" points="6.89955497 19.4470931 26.6905766 52.1047537 82.3567568 41.1133822 77.1257029 21.5651758"></polygon>
        <filter x="-25.8%" y="-50.5%" width="151.7%" height="219.4%" filterUnits="objectBoundingBox" id="filter-23">
            <feOffset dx="0" dy="3" in="SourceAlpha" result="shadowOffsetOuter1"></feOffset>
            <feGaussianBlur stdDeviation="6" in="shadowOffsetOuter1" result="shadowBlurOuter1"></feGaussianBlur>
            <feColorMatrix values="0 0 0 0 0.466764418   0 0 0 0 0.836522109   0 0 0 0 0.66068625  0 0 0 1 0" type="matrix" in="shadowBlurOuter1"></feColorMatrix>
        </filter>
        <linearGradient x1="58.317367%" y1="55.9683807%" x2="43.0750625%" y2="40.4019748%" id="linearGradient-24">
            <stop stop-color="#9FE6C2" offset="0%"></stop>
            <stop stop-color="#DBFFED" offset="100%"></stop>
        </linearGradient>
        <linearGradient x1="56.8772763%" y1="57.5336783%" x2="60.0329585%" y2="42.2289529%" id="linearGradient-25">
            <stop stop-color="#9FE6C2" offset="0%"></stop>
            <stop stop-color="#DBFFED" offset="100%"></stop>
        </linearGradient>
        <filter x="-12.5%" y="-6.2%" width="125.0%" height="112.5%" filterUnits="objectBoundingBox" id="filter-26">
            <feOffset dx="-2" dy="1" in="SourceAlpha" result="shadowOffsetOuter1"></feOffset>
            <feColorMatrix values="0 0 0 0 0.19694928   0 0 0 0 0.69879358   0 0 0 0 0.509664419  0 0 0 0.173092165 0" type="matrix" in="shadowOffsetOuter1" result="shadowMatrixOuter1"></feColorMatrix>
            <feMerge>
                <feMergeNode in="shadowMatrixOuter1"></feMergeNode>
                <feMergeNode in="SourceGraphic"></feMergeNode>
            </feMerge>
        </filter>
        <path d="M9.48839336,2.23946829 C14.3597547,4.40465326 20.1009211,3.65816383 26.7118928,0 L26.7398191,1.47862158 C21.1841322,6.66151081 16.0480362,8.6258722 11.3315312,7.37170575 L10.4350177,10.012197 C10.2664157,14.9428974 11.17102,18.3859696 13.1488307,20.3414134 C18.9614116,30.5589639 21.510165,35.6566876 20.7950908,35.6345843 C18.8627823,35.5748558 10.4867414,44.1671889 0.862266176,35.6345843 C-0.139102543,34.7468182 -0.200454731,31.5914868 0.330905723,19.945206 C0.685146025,12.1810187 3.03273887,6.17132757 7.37368427,1.91613253 L9.48839336,2.23946829 Z" id="path-27"></path>
        <linearGradient x1="50%" y1="36.1271522%" x2="47.4142516%" y2="-6.21317774%" id="linearGradient-29">
            <stop stop-color="#FFFFFF" offset="0%"></stop>
            <stop stop-color="#D7FFF5" offset="100%"></stop>
        </linearGradient>
    </defs>
    <g id="i/无数据/无内容-最大" stroke="none" stroke-width="1" fill="none" fill-rule="evenodd">
        <g id="i/无数据/无内容-最大-copy">
            <g id="无内容">
                <g id="Path-3" transform="translate(0.000000, 134.000000)">
                    <mask id="mask-3" fill="white">
                        <use xlink:href="#path-2"></use>
                    </mask>
                    <use id="Mask" fill="url(#linearGradient-1)" xlink:href="#path-2"></use>
                    <polygon fill="url(#linearGradient-4)" opacity="0.300000012" mask="url(#mask-3)" points="174.78271 54.5427957 1.97416194 79 -27.7122515 54.5427957 95.201769 30"></polygon>
                </g>
                <g id="Group-4" transform="translate(81.000000, 0.000000)">
                    <g id="Path-7" transform="translate(152.121848, 100.111440) scale(-1, 1) rotate(-345.000000) translate(-152.121848, -100.111440) translate(90.621848, 47.111440)">
                        <mask id="mask-7" fill="white">
                            <use xlink:href="#path-6"></use>
                        </mask>
                        <use id="Mask" fill="url(#linearGradient-5)" xlink:href="#path-6"></use>
                        <path d="M237.388742,71.2731345 C232.904923,42.7745779 212.711458,21.0663786 176.808348,6.14853665 C213.288774,25.0536525 232.405194,46.9555906 234.157608,71.8543508 L237.388742,71.2731345 Z" fill="#11209E" opacity="0.200000003" mask="url(#mask-7)"></path>
                    </g>
                    <g id="Group-16" transform="translate(39.500000, 74.000000) scale(-1, 1) translate(-39.500000, -74.000000) ">
                        <path d="M49.1777284,11.2358576 C50.6098502,7.68551145 68.7067642,-8.88011767 69.6878961,6.30109762 L69.6878961,11.9711096 C69.6879089,13.1717174 69.0725239,14.2885373 68.0575741,14.9298921 C64.2454807,17.338784 64.0608835,18.8516566 67.5037826,19.4685097 C73.3248728,20.5114557 78.9988723,17.9021779 78.4208313,29.3999523 C77.8427902,40.8977267 72.6459815,51.1404786 63.7021501,51.1404786 C54.7583186,51.1404786 49.7591676,58.589003 58.4873726,58.589003 C67.2155776,58.589003 71.4562397,55.6065081 72.6977983,57.0977555 C73.9393569,58.589003 74.4851382,71.2557867 69.6878961,76.2432598 C63.2059609,81.2307328 37.422466,88.7256065 56.9666167,88.7256065 C61.4277572,88.7256065 65.4043431,86.5201513 67.5037826,87.4527896 C71.5360728,89.2440621 67.953149,97.1106837 65.8362404,100.658995 C63.7193318,104.207306 48.1911631,111.511488 44.5731891,113.853959 C40.955215,116.196431 42.6310805,124.598903 51.0372558,119.116306 C56.6413726,115.461242 62.1302149,111.298035 67.5037826,106.626683 C68.9483304,105.387788 71.1289755,106.435035 74.0457178,109.768425 C76.9624601,113.101815 76.5131536,117.893449 72.6977983,124.143329 C64.8912847,135.961501 54.1666774,143.434069 40.5239762,146.561034 C20.0599245,151.251481 0.585527717,143.793761 1.7890795,134.030215 C2.99263129,124.266668 22.8902758,126.203464 21.4254021,119.116306 C19.9605284,112.029149 13.4108365,120.29942 8.42499672,119.116306 C3.43915694,117.933193 -3.24746066,101.246512 1.7890795,99.2477856 C6.82561966,97.249059 20.7516216,98.9817589 22.0315424,96.3326544 C23.3114631,93.6835499 18.2153084,90.585545 7.65342045,90.585545 C-2.90846747,90.585545 0.433942714,72.9447343 15.8456698,74 C31.2573968,75.0552657 17.3438545,65.8771339 12.8996554,61.9242566 C8.45545638,57.9713793 14.7189221,40.2827884 22.8902758,40.2827884 C31.0616294,40.2827884 38.5175108,48.3442852 42.7196868,44.6047585 C46.9218629,40.8652318 24.9988901,39.0730623 27.906448,33.6762547 C30.814006,28.2794471 34.4583834,17.1656782 39.2591662,18.9814143 C44.0599489,20.7971504 54.9276924,25.6277733 52.5246868,20.438518 C50.1216811,15.2492627 47.7456066,14.7862037 49.1777284,11.2358576 Z" id="Path-33" fill="url(#linearGradient-8)"></path>
                        <path d="M61.8639053,10.0338983 C41.3178551,57.1706131 29.414502,103.159314 26.1538462,148" id="Path-6" stroke="url(#linearGradient-9)" stroke-width="1.5" opacity="0.100000001" stroke-linecap="round"></path>
                    </g>
                </g>
                <g id="i/无数据/无内容-大" transform="translate(66.000000, 39.000000)">
                    <g id="Group-3-Copy-3">
                        <ellipse id="Oval-7" fill="url(#linearGradient-10)" opacity="0.300000012" filter="url(#filter-11)" cx="171" cy="138.943925" rx="69" ry="18.0560748"></ellipse>
                        <g id="Group-2">
                            <polygon id="Rectangle" fill="url(#linearGradient-12)" points="117 45.8023107 190.405904 58.6930904 190.405904 127.355698 117 140.22402"></polygon>
                            <polygon id="Rectangle" fill="url(#linearGradient-13)" points="28.5 57.2227481 117 45.8366413 117 150.830381 28.5 132.267122"></polygon>
                            <rect id="Rectangle" fill="url(#linearGradient-14)" x="112" y="0" width="16" height="82" rx="8"></rect>
                            <rect id="Rectangle-Copy-3" fill="url(#linearGradient-15)" x="90" y="33" width="11" height="82" rx="5.5"></rect>
                            <g id="Path-2" transform="translate(28.500000, 57.158879)">
                                <mask id="mask-18" fill="white">
                                    <use xlink:href="#path-17"></use>
                                </mask>
                                <use id="Mask" fill="url(#linearGradient-16)" xlink:href="#path-17"></use>
                            </g>
                            <g id="Path-2" transform="translate(108.500000, 58.663551)">
                                <mask id="mask-21" fill="white">
                                    <use xlink:href="#path-20"></use>
                                </mask>
                                <use id="Mask" fill="url(#linearGradient-19)" xlink:href="#path-20"></use>
                                <g mask="url(#mask-21)">
                                    <use fill="black" fill-opacity="1" filter="url(#filter-23)" xlink:href="#path-22"></use>
                                    <use fill="#D8D8D8" fill-rule="evenodd" xlink:href="#path-22"></use>
                                </g>
                            </g>
                            <polygon id="Path-29" fill="url(#linearGradient-24)" points="109.695596 71.5479324 135.149357 111.559388 225.783368 92.5156793 190.496614 58.6819366"></polygon>
                            <polygon id="Path-28" fill="url(#linearGradient-25)" points="28.5443194 57.1240767 0 87.6548118 80.7801695 110.755148 109.527953 71.429058"></polygon>
                        </g>
                    </g>
                </g>
                <g id="Group-6" filter="url(#filter-26)" transform="translate(239.000000, 156.000000) scale(-1, 1) translate(-239.000000, -156.000000) translate(223.000000, 124.000000)">
                    <polygon id="Path-26" fill="#FFBAA5" points="6.45838961 56.5381509 5.61536201 58.1347264 7.75454754 60.3436034 7.75454754 56.8324727"></polygon>
                    <path d="M7.70247934,50.8299722 C6.66759871,53.6809367 6.15015839,55.756594 6.15015839,57.056944 L7.66292607,57.8972411 L11.230724,51.7710057 L7.70247934,50.8299722 Z" id="Path-22" fill="#4E8490"></path>
                    <path d="M7.78358229,59.9625043 L8.25777797,63.4275975 C8.27805224,63.5757478 8.17438825,63.7122829 8.02623798,63.7325571 C7.92501512,63.7464094 7.82461412,63.7021032 7.76662239,63.6179907 L5.33022896,60.084191 C4.91449252,59.4811975 4.95367183,58.6745767 5.42589073,58.1147131 L5.53324566,57.9874329 L5.53324566,57.9874329 L7.78358229,59.9625043 Z" id="Path-27" fill="#92BFBE"></path>
                    <polygon id="Path-29" fill="#FFBAA5" points="16.846086 58.328571 17.3782365 60.9880065 20.0548643 61.1590575 18.4504752 58.1690592"></polygon>
                    <path d="M14.7069005,51.1250075 C15.9183571,55.8863043 16.7479545,58.5061396 17.1956926,58.9845133 L18.9852716,58.7610062 L18.2580405,49.7427001 L14.7069005,51.1250075 Z" id="Path-28" fill="#4E8490"></path>
                    <path d="M27.1387808,13.2610926 C27.2594738,13.2610926 28.6198254,12.5362858 29.0885535,12.1626408 C29.5572817,11.7889958 30.0734878,11.9875907 29.5810207,12.3107487 C29.0885535,12.6339066 28.1496283,13.1575991 28.8109128,13.2610926 C29.4721972,13.3645861 31.358568,13.6001615 31.7316936,14.5438133 C32.1048193,15.4874651 31.1938051,14.5057737 30.9728676,14.3982884 C30.7519302,14.2908031 30.1652709,14.0860468 29.9751237,14.31493 C29.7849765,14.5438133 29.2400367,14.9466337 28.4778026,14.5438133 C27.9696465,14.2752663 27.4794514,14.1989719 27.0072173,14.31493 C27.0144643,13.6123717 27.0583189,13.2610926 27.1387808,13.2610926 Z" id="Path-31" fill="#FFBAA5"></path>
                    <path d="M21.1244571,2.57982144 C21.1531529,1.19480314 21.4733946,0.359431799 22.0851821,0.0737074255 C22.6969695,-0.212016948 22.5627078,0.332959424 21.682397,1.70863654 L21.5002755,2.98999837 L21.1244571,2.57982144 Z" id="Path-32" fill="#FFBAA5"></path>
                    <path d="M19.9844352,60.9264052 L23.1505369,63.127055 C23.254727,63.199474 23.2925037,63.3358674 23.2404173,63.45157 C23.1882611,63.5674275 23.0612193,63.6299692 22.9375928,63.6006482 L18.470418,62.541147 C17.7402655,62.3679733 17.1810466,61.7803089 17.0442825,61.0424693 L16.9590986,60.5829035 L16.9590986,60.5829035 L19.9844352,60.9264052 Z" id="Path-30" fill="#92BFBE"></path>
                    <path d="M9.17150177,15.512502 C10.8284041,14.1501009 13.0257986,12.6664311 15.7636854,11.0614928 C18.5015721,9.45655454 20.1773787,6.49423835 20.791105,2.17454427 L21.9266517,2.17454427 C21.3788912,10.6676021 18.990541,15.3793851 14.761601,16.3098933 C10.532661,17.2404015 8.66929463,16.9746044 9.17150177,15.512502 Z" id="Path-9" fill="#FFFFFF"></path>
                    <path d="M10.587636,15.4936279 L11.3246226,15.4936279 C11.3792642,13.3197837 11.833458,11.7772982 12.6872039,10.8661715 C13.5409498,9.95504473 13.086756,8.75125467 11.3246226,7.25480128 C10.3127515,6.93106037 9.56407605,7.02647972 9.07859613,7.54105932 C8.59311622,8.05563892 8.06263396,9.82319517 7.48714935,12.8437281 L7.48714935,15.4936279 L10.587636,15.4936279 Z" id="Path-12" fill="#FFBAA5"></path>
                    <path d="M9.37886221,5.78027499 C9.9923903,5.92263705 10.958697,6.92333401 10.6292121,8.14328007 C10.4095555,8.95657745 9.99277221,9.34257061 9.37886221,9.30125954 C8.90998099,9.81112074 8.90998099,10.2387751 9.37886221,10.5842225 C9.84774342,10.9296699 9.84774342,11.5384694 9.37886221,12.4106209 C10.0467951,13.3542086 9.60300708,14.0775875 8.04749802,14.5807577 C6.3386808,14.9992443 5.93044715,14.0162617 5.63500059,12.6488887 C5.52871141,12.1569657 5.63500059,10.7446687 5.63500059,10.1947586 C5.63500059,8.64686751 5.14200316,7.65765514 5.97458807,6.52107453 C6.50811872,5.79273969 8.27026972,5.523039 9.37886221,5.78027499 Z" id="Path-7" fill="#49322D"></path>
                    <g id="Path-5" transform="translate(0.000000, 13.047266)">
                        <mask id="mask-28" fill="white">
                            <use xlink:href="#path-27"></use>
                        </mask>
                        <use id="Mask" fill="#FFFFFF" xlink:href="#path-27"></use>
                        <path d="M11.7150975,7.53306352 C11.5063432,7.53306352 9.61839302,6.97356686 8.42711405,5.82025242 L11.0861582,16.3829887 C11.6446206,10.4830386 11.8542671,7.53306352 11.7150975,7.53306352 Z" fill="url(#linearGradient-29)" mask="url(#mask-28)"></path>
                    </g>
                </g>
            </g>
        </g>
    </g>
</svg>