<svg t="1687683875063" class="icon" viewBox="0 0 1113 1024" version="1.1" xmlns="http://www.w3.org/2000/svg" p-id="1901" width="32" height="32"><path d="M336.87032 155.478609m45.347928 0l685.790231 0q45.347928 0 45.347928 45.347928l0 0q0 45.347928-45.347928 45.347928l-685.790231 0q-45.347928 0-45.347928-45.347928l0 0q0-45.347928 45.347928-45.347928Z" fill="#707070" p-id="1902"></path><path d="M336.87032 524.740306m45.347928 0l685.790231 0q45.347928 0 45.347928 45.347928l0 0q0 45.347928-45.347928 45.347927l-685.790231 0q-45.347928 0-45.347928-45.347927l0 0q0-45.347928 45.347928-45.347928Z" fill="#707070" p-id="1903"></path><path d="M336.87032 894.002003m45.347928 0l685.790231 0q45.347928 0 45.347928 45.347927l0 0q0 45.347928-45.347928 45.347928l-685.790231 0q-45.347928 0-45.347928-45.347928l0 0q0-45.347928 45.347928-45.347927Z" fill="#707070" p-id="1904"></path><path d="M142.522058 0a142.522058 142.522058 0 1 0 142.522059 142.522058A142.522058 142.522058 0 0 0 142.522058 0z m0 233.217914a90.695855 90.695855 0 1 1 90.695856-90.695856 90.695855 90.695855 0 0 1-90.695856 90.695856zM142.522058 369.261697a142.522058 142.522058 0 1 0 142.522059 142.522058 142.522058 142.522058 0 0 0-142.522059-142.522058z m0 233.217914a90.695855 90.695855 0 1 1 90.695856-90.695856 90.695855 90.695855 0 0 1-90.695856 90.695856zM142.522058 738.523394a142.522058 142.522058 0 1 0 142.522059 142.522058 142.522058 142.522058 0 0 0-142.522059-142.522058z m0 233.217913a90.695855 90.695855 0 1 1 90.695856-90.695855 90.695855 90.695855 0 0 1-90.695856 90.695855z" fill="#707070" p-id="1905"></path><path d="M142.522058 142.522058m-51.826203 0a51.826203 51.826203 0 1 0 103.652406 0 51.826203 51.826203 0 1 0-103.652406 0Z" fill="#707070" p-id="1906"></path></svg>